<svg width="800" height="620" viewBox="0 0 800 620" fill="none" xmlns="http://www.w3.org/2000/svg">
  <rect x="80" y="80" width="640" height="440" rx="40" fill="#EFF6FF" />
  <circle cx="325" cy="245" r="42" fill="#FFFFFF" />
  <circle cx="465" cy="245" r="42" fill="#FFFFFF" />
  <circle cx="395" cy="145" r="42" fill="#FFFFFF" />
  <path d="M310 295C310 278.431 323.431 265 340 265H450C466.569 265 480 278.431 480 295V335C480 351.569 466.569 365 450 365H340C323.431 365 310 351.569 310 335V295Z" fill="#2563EB" />
  <path d="M240 345C240 328.431 253.431 315 270 315H390C406.569 315 420 328.431 420 345V385C420 401.569 406.569 415 390 415H270C253.431 415 240 401.569 240 385V345Z" fill="#0F172A" />
  <path d="M490 345C490 328.431 503.431 315 520 315H640C656.569 315 670 328.431 670 345V385C670 401.569 656.569 415 640 415H520C503.431 415 490 401.569 490 385V345Z" fill="#0F172A" />
  <rect x="298" y="208" width="194" height="116" rx="20" fill="#F8FAFC" />
  <rect x="272" y="460" width="256" height="18" rx="9" fill="#CBD5E1" />
  <path d="M190 520C190 500 260 480 330 480H470C540 480 610 500 610 520" stroke="#0F172A" stroke-width="18" stroke-linecap="round" />
</svg>
