<svg width="800" height="660" viewBox="0 0 800 660" fill="none" xmlns="http://www.w3.org/2000/svg">
  <rect x="60" y="120" width="320" height="520" rx="28" fill="#0F172A" />
  <rect x="420" y="200" width="320" height="440" rx="28" fill="#1E293B" />
  <rect x="120" y="180" width="60" height="60" rx="12" fill="#E2E8F0" />
  <rect x="210" y="180" width="60" height="60" rx="12" fill="#E2E8F0" />
  <rect x="300" y="180" width="60" height="60" rx="12" fill="#E2E8F0" />
  <rect x="480" y="260" width="60" height="60" rx="12" fill="#CBD5E1" />
  <rect x="570" y="260" width="60" height="60" rx="12" fill="#CBD5E1" />
  <rect x="660" y="260" width="60" height="60" rx="12" fill="#CBD5E1" />
  <rect x="480" y="340" width="60" height="60" rx="12" fill="#F8FAFC" />
  <rect x="570" y="340" width="60" height="60" rx="12" fill="#F8FAFC" />
  <rect x="660" y="340" width="60" height="60" rx="12" fill="#F8FAFC" />
  <rect x="120" y="320" width="60" height="60" rx="12" fill="#F8FAFC" />
  <rect x="210" y="320" width="60" height="60" rx="12" fill="#F8FAFC" />
  <rect x="300" y="320" width="60" height="60" rx="12" fill="#F8FAFC" />
  <ellipse cx="400" cy="620" rx="380" ry="40" fill="#0F172A" fill-opacity="0.12" />
</svg>
