<svg width="820" height="560" viewBox="0 0 820 560" fill="none" xmlns="http://www.w3.org/2000/svg">
  <rect x="80" y="60" width="660" height="420" rx="28" fill="#E2E8F0" />
  <rect x="140" y="120" width="220" height="200" rx="18" fill="#FFFFFF" />
  <rect x="420" y="120" width="260" height="160" rx="18" fill="#FFFFFF" />
  <rect x="440" y="320" width="220" height="140" rx="18" fill="#FFFFFF" />
  <path d="M180 160H340" stroke="#0F172A" stroke-width="10" stroke-linecap="round" />
  <path d="M180 220H340" stroke="#0F172A" stroke-width="10" stroke-linecap="round" />
  <path d="M180 280H340" stroke="#0F172A" stroke-width="10" stroke-linecap="round" />
  <path d="M460 160H640" stroke="#0F172A" stroke-width="10" stroke-linecap="round" />
  <path d="M460 200H640" stroke="#0F172A" stroke-width="10" stroke-linecap="round" />
  <path d="M460 240H640" stroke="#0F172A" stroke-width="10" stroke-linecap="round" />
  <path d="M460 280H560" stroke="#0F172A" stroke-width="10" stroke-linecap="round" />
  <path d="M520 340H620" stroke="#0F172A" stroke-width="10" stroke-linecap="round" />
  <circle cx="250" cy="360" r="16" fill="#CBD5E1" />
  <circle cx="290" cy="360" r="16" fill="#CBD5E1" />
  <circle cx="330" cy="360" r="16" fill="#CBD5E1" />
  <rect x="210" y="380" width="220" height="22" rx="11" fill="#CBD5E1" />
  <rect x="470" y="380" width="190" height="18" rx="9" fill="#CBD5E1" />
  <rect x="520" y="420" width="120" height="18" rx="9" fill="#CBD5E1" />
</svg>
