<svg width="900" height="620" viewBox="0 0 900 620" fill="none" xmlns="http://www.w3.org/2000/svg">
  <defs>
    <linearGradient id="shBg" x1="0" x2="1" y1="0" y2="1">
      <stop offset="0%" stop-color="#eef2ff" />
      <stop offset="100%" stop-color="#dbeafe" />
    </linearGradient>
  </defs>
  <rect width="900" height="620" rx="50" fill="url(#shBg)" />
  <rect x="120" y="120" width="660" height="360" rx="36" fill="#ffffff" />
  <circle cx="220" cy="240" r="34" fill="#0f172a" opacity="0.12" />
  <path d="M260 260C260 234.431 280.431 214 306 214H394C419.569 214 440 234.431 440 260V301C440 326.569 419.569 347 394 347H306C280.431 347 260 326.569 260 301V260Z" fill="#2563eb" />
  <path d="M266 320C266 299.862 283.862 282 304 282H396C416.138 282 434 299.862 434 320V340H266V320Z" fill="#eff6ff" />
  <rect x="505" y="220" width="180" height="14" rx="7" fill="#cbd5e1" />
  <rect x="505" y="250" width="220" height="14" rx="7" fill="#cbd5e1" />
  <rect x="505" y="280" width="190" height="14" rx="7" fill="#cbd5e1" />
  <rect x="480" y="330" width="260" height="160" rx="30" fill="#2563eb" />
  <path d="M520 360H660" stroke="#ffffff" stroke-width="16" stroke-linecap="round" />
  <path d="M520 410H700" stroke="#ffffff" stroke-width="16" stroke-linecap="round" />
  <path d="M520 460H600" stroke="#ffffff" stroke-width="16" stroke-linecap="round" />
  <circle cx="160" cy="410" r="26" fill="#f8fafc" />
  <circle cx="190" cy="405" r="10" fill="#2563eb" />
  <circle cx="145" cy="445" r="10" fill="#2563eb" />
  <circle cx="105" cy="425" r="10" fill="#2563eb" />
  <rect x="120" y="470" width="170" height="12" rx="6" fill="#cbd5e1" />
  <rect x="600" y="500" width="240" height="18" rx="9" fill="#cbd5e1" />
  <rect x="360" y="500" width="210" height="18" rx="9" fill="#cbd5e1" />
  <path d="M120 560C120 540 180 520 260 520H640C720 520 780 540 780 560" stroke="#0f172a" stroke-width="18" stroke-linecap="round" opacity="0.2" />
</svg>
